# xmcd CD database file
#
# Track frame offsets:
#	225
#	28209
#	52067
#	78308
#	98133
#	117823
#	139188
#	154926
#	176790
#	191568
#	214143
#	241103
#
# Disc length: 3269 seconds
#
# Revision: 0
# Processed by: cddbd v1.4PL0 Copyright (c) Steve Scherf et al.
# Submitted via: CDex 1.40Release
#
DISCID=a70cc20c
DTITLE=Lifescapes - Instrumental Blues
DYEAR=1998
DGENRE=Blues
TTITLE0=Aces and Eights
TTITLE1=Erica
TTITLE2=Bugablues
TTITLE3=That's The Kind Of Guy I Am
TTITLE4=Swampy
TTITLE5=Giving Tree
TTITLE6=Back Porch Blues
TTITLE7=Done Wrong
TTITLE8=Wes Village
TTITLE9=Swingtown
TTITLE10=All For The Good Of Me
TTITLE11=Harmonica
EXTD=YEAR: 1998 ID3G: 0
EXTT0=
EXTT1=
EXTT2=
EXTT3=
EXTT4=
EXTT5=
EXTT6=
EXTT7=
EXTT8=
EXTT9=
EXTT10=
EXTT11=
PLAYORDER=
